<svg version="1.1" id="Layer_1" xmlns="http://www.w3.org/2000/svg" xmlns:xlink="http://www.w3.org/1999/xlink" x="0px"
  y="0px" width="100%" viewBox="0 0 448 156" enable-background="new 0 0 448 156" xml:space="preserve">
  <path fill="#FCFCFC" opacity="1.000000" stroke="none" d="
M114.000000,157.000000 
	C76.350380,157.000000 38.700756,157.000000 1.025567,157.000000 
	C1.025567,105.040588 1.025567,53.081158 1.025567,1.060864 
	C150.225159,1.060864 299.450348,1.060864 448.837769,1.060864 
	C448.837769,52.999645 448.837769,104.999748 448.837769,157.000000 
	C417.909271,157.000000 386.923309,157.000000 355.559875,156.604202 
	C355.851379,155.813721 356.503204,155.108154 357.191772,155.070297 
	C370.588806,154.333801 383.991547,153.702072 397.389832,152.986633 
	C402.345947,152.721970 407.307434,152.421036 412.236053,151.866348 
	C413.588379,151.714142 414.830719,150.584717 416.123505,149.903702 
	C416.057190,149.453705 415.990875,149.003708 415.924561,148.553696 
	C413.933075,148.037064 411.964355,147.200912 409.946289,147.057068 
	C399.051086,146.280441 388.150085,145.530930 377.238983,145.044022 
	C359.515137,144.253113 341.786621,143.337296 324.051422,143.086334 
	C300.416718,142.751907 276.773651,142.981537 253.134399,143.049652 
	C251.418030,143.054596 249.703583,143.715561 247.665894,144.058350 
	C246.913940,144.045685 246.484314,144.046173 245.669815,143.872681 
	C243.492722,143.467026 241.701920,143.048553 239.908081,143.035141 
	C230.829697,142.967178 221.748566,142.890671 212.672409,143.048309 
	C207.378220,143.140274 202.090622,143.941635 196.801727,143.924026 
	C190.677673,143.903625 184.552536,143.010818 178.432968,143.065628 
	C161.478409,143.217484 144.526764,143.679398 127.573479,143.991791 
	C108.511604,144.343048 89.444115,144.495529 70.389061,145.067459 
	C60.132389,145.375320 49.888172,146.279755 39.657497,147.142334 
	C37.138149,147.354767 34.693687,148.455429 32.214802,149.147766 
	C33.017342,150.575867 33.575191,150.908615 34.157566,150.959229 
	C46.023430,151.990555 57.876202,153.295181 69.764450,153.913681 
	C83.033531,154.604019 96.337463,154.606232 109.619926,155.083374 
	C111.100983,155.136581 112.540962,156.333496 114.000000,157.000000 
M330.425720,65.964890 
	C331.507965,65.889786 332.858856,66.206955 333.630554,65.678429 
	C340.771423,60.787609 347.812347,55.750889 355.663391,50.875420 
	C358.865234,51.757866 362.050507,53.253529 365.273804,53.340534 
	C368.169250,53.418690 371.913910,52.829082 373.890106,51.015316 
	C384.280792,41.478848 394.246368,31.477957 404.306396,21.584253 
	C405.392944,20.515623 406.136780,19.098473 407.039581,17.842993 
	C406.805573,17.392483 406.571533,16.941973 406.337524,16.491463 
	C371.630341,21.826418 336.923157,27.161373 302.215973,32.496330 
	C302.185242,33.158558 302.154480,33.820786 302.123749,34.483013 
	C309.131989,35.980099 316.140228,37.477184 323.201508,39.788353 
	C324.292084,46.084652 325.169830,52.429214 326.581024,58.652824 
	C327.123840,61.046635 328.881134,63.165070 330.425720,65.964890 
M36.986286,63.610477 
	C37.694016,61.891891 38.401745,60.173306 39.109474,58.454720 
	C37.190853,57.938725 34.918453,56.515785 33.427906,57.097214 
	C30.407368,58.275448 29.262640,61.002609 30.975243,64.673050 
	C32.806168,64.413757 34.550404,64.166740 36.986286,63.610477 
M74.116814,56.642525 
	C75.016708,55.328018 75.916611,54.013515 76.816505,52.699013 
	C75.418633,51.820999 74.113121,50.445976 72.604187,50.165554 
	C69.167580,49.526890 66.523926,50.746315 65.504227,55.142239 
	C68.253922,55.683784 70.790634,56.183380 74.116814,56.642525 
M49.691612,53.121418 
	C44.706142,54.577698 46.632584,56.988579 49.059971,59.866425 
	C51.979198,58.490261 54.908840,57.109192 57.838482,55.728119 
	C57.709732,54.958378 57.580982,54.188637 57.452232,53.418896 
	C55.106747,53.259506 52.761261,53.100113 49.691612,53.121418 
M86.078430,54.588818 
	C89.028542,58.590881 92.206413,55.451878 95.670624,55.217232 
	C95.034630,51.751099 93.376999,49.863003 90.210274,50.479160 
	C88.441795,50.823254 84.807610,49.697594 86.078430,54.588818 
M112.094643,52.293861 
	C109.563530,52.840225 107.032417,53.386593 104.501305,53.932961 
	C106.186363,56.330456 107.730415,57.819923 109.498573,58.166695 
	C110.944244,58.450226 112.657265,57.370613 114.251762,56.895340 
	C113.782791,55.414833 113.313820,53.934326 112.094643,52.293861 
M131.736633,56.791786 
	C129.336502,56.523293 126.936371,56.254795 124.536240,55.986298 
	C124.358604,56.894875 124.180962,57.803452 124.003326,58.712029 
	C126.169212,59.401428 128.307617,60.270733 130.527039,60.609749 
	C130.913773,60.668827 131.641953,58.492592 131.736633,56.791786 
M144.220612,63.189205 
	C146.629211,65.013481 148.999985,67.367439 152.319443,63.481529 
	C149.353439,62.277748 147.468674,57.254215 144.220612,63.189205 
z" />
  <path fill="#F1F1F1" opacity="1.000000" stroke="none" d="
M114.468658,157.000000 
	C112.540962,156.333496 111.100983,155.136581 109.619926,155.083374 
	C96.337463,154.606232 83.033531,154.604019 69.764450,153.913681 
	C57.876202,153.295181 46.023430,151.990555 34.157566,150.959229 
	C33.575191,150.908615 33.017342,150.575867 32.214802,149.147766 
	C34.693687,148.455429 37.138149,147.354767 39.657497,147.142334 
	C49.888172,146.279755 60.132389,145.375320 70.389061,145.067459 
	C89.444115,144.495529 108.511604,144.343048 127.573479,143.991791 
	C144.526764,143.679398 161.478409,143.217484 178.432968,143.065628 
	C184.552536,143.010818 190.677673,143.903625 196.801727,143.924026 
	C202.090622,143.941635 207.378220,143.140274 212.672409,143.048309 
	C221.748566,142.890671 230.829697,142.967178 239.908081,143.035141 
	C241.701920,143.048553 243.492722,143.467026 245.603729,144.249741 
	C244.106003,145.501755 242.309586,146.716537 240.468491,146.788467 
	C237.371338,146.909470 234.241440,146.009201 231.132965,146.055115 
	C216.566116,146.270142 202.002472,146.692078 187.436401,146.974243 
	C181.961533,147.080307 176.483200,147.008209 170.537491,147.010544 
	C164.047607,147.005295 158.026672,147.006836 151.612396,147.052490 
	C149.297485,147.168793 147.361023,147.431046 145.456802,147.281921 
	C134.122253,146.394257 122.942909,147.339355 111.767868,149.920975 
	C113.519981,151.007980 115.326073,151.873306 117.161064,151.939667 
	C129.439850,152.383713 141.724808,152.657532 154.463745,152.991791 
	C160.285736,152.646225 165.651718,152.295456 171.484863,151.956909 
	C177.217163,151.983978 182.496674,151.788330 187.738403,152.146271 
	C189.244827,152.249146 190.642151,153.949478 191.707947,154.941010 
	C190.217606,155.643097 189.108810,156.321548 188.000000,157.000000 
	C163.645767,157.000000 139.291550,157.000000 114.468658,157.000000 
z" />
  <path fill="#F1F1F1" opacity="1.000000" stroke="none" d="
M247.988235,144.071518 
	C249.703583,143.715561 251.418030,143.054596 253.134399,143.049652 
	C276.773651,142.981537 300.416718,142.751907 324.051422,143.086334 
	C341.786621,143.337296 359.515137,144.253113 377.238983,145.044022 
	C388.150085,145.530930 399.051086,146.280441 409.946289,147.057068 
	C411.964355,147.200912 413.933075,148.037064 415.924561,148.553696 
	C415.990875,149.003708 416.057190,149.453705 416.123505,149.903702 
	C414.830719,150.584717 413.588379,151.714142 412.236053,151.866348 
	C407.307434,152.421036 402.345947,152.721970 397.389832,152.986633 
	C383.991547,153.702072 370.588806,154.333801 357.191772,155.070297 
	C356.503204,155.108154 355.851379,155.813721 355.091248,156.604202 
	C319.645782,157.000000 284.291534,157.000000 248.470016,156.625458 
	C248.001694,155.501846 248.000671,154.752792 248.266846,153.721024 
	C258.023895,153.294601 267.513763,153.150879 277.467773,153.007599 
	C285.287048,152.345444 292.642212,151.682846 300.296204,151.311798 
	C314.277771,151.910400 328.004089,153.147476 341.608124,149.773056 
	C340.036591,148.628220 338.423462,148.128860 336.785980,148.029114 
	C325.078979,147.316010 313.370911,146.591339 301.653748,146.093307 
	C298.787201,145.971451 295.885559,146.676407 292.533142,147.000031 
	C287.038177,147.017288 282.010071,147.035751 276.514587,147.042633 
	C268.289185,147.018646 260.524689,147.169876 252.778427,146.861603 
	C251.147278,146.796707 249.583206,145.045639 247.988235,144.071518 
z" />
  <path fill="#FBFBFB" opacity="1.000000" stroke="none" d="
M247.999664,154.003723 
	C248.000671,154.752792 248.001694,155.501846 248.001358,156.625458 
	C237.645767,157.000000 227.291550,157.000000 216.492065,156.680939 
	C216.364624,155.575439 216.682434,154.789032 217.453552,154.001282 
	C223.241821,154.308594 228.576782,154.617218 234.360001,154.951828 
	C237.542450,154.634720 240.276657,154.291656 243.426575,153.954163 
	C245.228088,153.974396 246.613876,153.989059 247.999664,154.003723 
z" />
  <path fill="#F1F1F1" opacity="1.000000" stroke="none" d="
M217.000244,154.002609 
	C216.682434,154.789032 216.364624,155.575439 216.023407,156.680939 
	C212.307098,157.000000 208.614182,157.000000 204.389786,156.636292 
	C201.905502,155.513443 199.952698,154.754318 198.173737,153.670441 
	C204.565109,153.564667 210.782684,153.783630 217.000244,154.002609 
z" />
  <path fill="#FAFAFA" opacity="1.000000" stroke="none" d="
M197.999908,153.995193 
	C199.952698,154.754318 201.905502,155.513443 203.929138,156.636292 
	C198.977905,157.000000 193.955811,157.000000 188.466858,157.000000 
	C189.108810,156.321548 190.217606,155.643097 192.081070,154.943756 
	C194.557129,154.613663 196.278519,154.304428 197.999908,153.995193 
z" />
  <path fill="#FDC941" opacity="1.000000" stroke="none" d="
M323.148468,38.974274 
	C316.140228,37.477184 309.131989,35.980099 302.123749,34.483013 
	C302.154480,33.820786 302.185242,33.158558 302.215973,32.496330 
	C336.923157,27.161373 371.630341,21.826418 406.337524,16.491463 
	C406.571533,16.941973 406.805573,17.392483 407.039581,17.842993 
	C406.136780,19.098473 405.392944,20.515623 404.306396,21.584253 
	C394.246368,31.477957 384.280792,41.478848 373.890106,51.015316 
	C371.913910,52.829082 368.169250,53.418690 365.273804,53.340534 
	C362.050507,53.253529 358.865234,51.757866 355.022644,50.598820 
	C348.562805,48.202812 342.743652,46.083408 337.009949,43.612473 
	C337.891785,42.745407 338.625824,42.062374 339.493866,41.739441 
	C352.691284,36.829609 365.910004,31.977160 379.110901,27.076679 
	C380.369110,26.609608 381.541412,25.911160 382.753601,25.320127 
	C382.577087,24.819082 382.400543,24.318037 382.223999,23.816994 
	C371.972565,26.555868 361.740601,29.370672 351.463898,32.011292 
	C342.050537,34.430065 332.588867,36.660725 323.148468,38.974274 
z" />
  <path fill="#DADBDC" opacity="1.000000" stroke="none" d="
M198.173737,153.670441 
	C196.278519,154.304428 194.557129,154.613663 192.462616,154.920135 
	C190.642151,153.949478 189.244827,152.249146 187.738403,152.146271 
	C182.496674,151.788330 177.217163,151.983978 171.480026,151.548004 
	C171.007507,149.757004 171.006989,148.387161 171.006454,147.017334 
	C176.483200,147.008209 181.961533,147.080307 187.436401,146.974243 
	C202.002472,146.692078 216.566116,146.270142 231.132965,146.055115 
	C234.241440,146.009201 237.371338,146.909470 240.468491,146.788467 
	C242.309586,146.716537 244.106003,145.501755 245.988617,144.423721 
	C246.484314,144.046173 246.913940,144.045685 247.665894,144.058350 
	C249.583206,145.045639 251.147278,146.796707 252.778427,146.861603 
	C260.524689,147.169876 268.289185,147.018646 276.519318,147.465118 
	C276.995514,149.601852 276.999573,151.304504 277.003662,153.007172 
	C267.513763,153.150879 258.023895,153.294601 248.266830,153.721024 
	C246.613876,153.989059 245.228088,153.974396 243.161224,153.684998 
	C240.752563,153.019226 238.971619,152.184921 237.315079,152.384232 
	C236.096344,152.530884 235.040298,154.029633 233.911743,154.925858 
	C228.576782,154.617218 223.241821,154.308594 217.453552,154.001282 
	C210.782684,153.783630 204.565109,153.564667 198.173737,153.670441 
z" />
  <path fill="#FCBA15" opacity="1.000000" stroke="none" d="
M323.174988,39.381313 
	C332.588867,36.660725 342.050537,34.430065 351.463898,32.011292 
	C361.740601,29.370672 371.972565,26.555868 382.223999,23.816994 
	C382.400543,24.318037 382.577087,24.819082 382.753601,25.320127 
	C381.541412,25.911160 380.369110,26.609608 379.110901,27.076679 
	C365.910004,31.977160 352.691284,36.829609 339.493866,41.739441 
	C338.625824,42.062374 337.891785,42.745407 336.740936,43.859512 
	C334.286011,51.441711 332.185547,58.425339 330.085083,65.408974 
	C328.881134,63.165070 327.123840,61.046635 326.581024,58.652824 
	C325.169830,52.429214 324.292084,46.084652 323.174988,39.381313 
z" />
  <path fill="#CE9C11" opacity="1.000000" stroke="none" d="
M330.255402,65.686935 
	C332.185547,58.425339 334.286011,51.441711 336.655518,44.211044 
	C342.743652,46.083408 348.562805,48.202812 354.632141,50.539383 
	C347.812347,55.750889 340.771423,60.787609 333.630554,65.678429 
	C332.858856,66.206955 331.507965,65.889786 330.255402,65.686935 
z" />
  <path fill="#FBD25B" opacity="1.000000" stroke="none" d="
M36.640465,63.765102 
	C34.550404,64.166740 32.806168,64.413757 30.975243,64.673050 
	C29.262640,61.002609 30.407368,58.275448 33.427906,57.097214 
	C34.918453,56.515785 37.190853,57.938725 39.109474,58.454720 
	C38.401745,60.173306 37.694016,61.891891 36.640465,63.765102 
z" />
  <path fill="#FBD35F" opacity="1.000000" stroke="none" d="
M73.722084,56.662750 
	C70.790634,56.183380 68.253922,55.683784 65.504227,55.142239 
	C66.523926,50.746315 69.167580,49.526890 72.604187,50.165554 
	C74.113121,50.445976 75.418633,51.820999 76.816513,52.699013 
	C75.916611,54.013515 75.016708,55.328018 73.722084,56.662750 
z" />
  <path fill="#FBD360" opacity="1.000000" stroke="none" d="
M50.053696,53.031071 
	C52.761261,53.100113 55.106747,53.259506 57.452232,53.418896 
	C57.580982,54.188637 57.709732,54.958378 57.838482,55.728119 
	C54.908840,57.109192 51.979198,58.490261 49.059971,59.866425 
	C46.632584,56.988579 44.706142,54.577698 50.053696,53.031071 
z" />
  <path fill="#FBD25B" opacity="1.000000" stroke="none" d="
M85.954330,54.255177 
	C84.807610,49.697594 88.441795,50.823254 90.210274,50.479160 
	C93.376999,49.863003 95.034630,51.751099 95.670624,55.217232 
	C92.206413,55.451878 89.028542,58.590881 85.954330,54.255177 
z" />
  <path fill="#FBD568" opacity="1.000000" stroke="none" d="
M112.469749,52.373840 
	C113.313820,53.934326 113.782791,55.414833 114.251755,56.895340 
	C112.657265,57.370613 110.944244,58.450226 109.498573,58.166695 
	C107.730415,57.819923 106.186363,56.330456 104.501305,53.932961 
	C107.032417,53.386593 109.563530,52.840225 112.469749,52.373840 
z" />
  <path fill="#FBD771" opacity="1.000000" stroke="none" d="
M131.974533,57.070282 
	C131.641953,58.492592 130.913773,60.668827 130.527039,60.609749 
	C128.307617,60.270733 126.169212,59.401428 124.003326,58.712029 
	C124.180962,57.803452 124.358604,56.894875 124.536240,55.986298 
	C126.936371,56.254795 129.336502,56.523293 131.974533,57.070282 
z" />
  <path fill="#FBD463" opacity="1.000000" stroke="none" d="
M144.096390,62.845711 
	C147.468674,57.254215 149.353439,62.277748 152.319443,63.481529 
	C148.999985,67.367439 146.629211,65.013481 144.096390,62.845711 
z" />
  <path fill="#E6E7E8" opacity="1.000000" stroke="none" d="
M154.007751,152.986572 
	C141.724808,152.657532 129.439850,152.383713 117.161064,151.939667 
	C115.326073,151.873306 113.519981,151.007980 111.767868,149.920975 
	C122.942909,147.339355 134.122253,146.394257 145.456802,147.281921 
	C147.361023,147.431046 149.297485,147.168793 151.646210,147.404480 
	C152.718170,149.470413 153.362961,151.228485 154.007751,152.986572 
z" />
  <path fill="#DFE0E2" opacity="1.000000" stroke="none" d="
M154.463745,152.991791 
	C153.362961,151.228485 152.718170,149.470413 152.039566,147.360352 
	C158.026672,147.006836 164.047607,147.005295 170.537491,147.010529 
	C171.006989,148.387161 171.007507,149.757004 171.012878,151.535767 
	C165.651718,152.295456 160.285736,152.646225 154.463745,152.991791 
z" />
  <path fill="#E6E7E8" opacity="1.000000" stroke="none" d="
M293.000031,147.001221 
	C295.885559,146.676407 298.787201,145.971451 301.653748,146.093307 
	C313.370911,146.591339 325.078979,147.316010 336.785980,148.029114 
	C338.423462,148.128860 340.036591,148.628220 341.608124,149.773056 
	C328.004089,153.147476 314.277771,151.910400 300.237183,150.956207 
	C297.586243,149.206436 295.293121,148.103821 293.000031,147.001221 
z" />
  <path fill="#DFE0E2" opacity="1.000000" stroke="none" d="
M292.533142,147.000031 
	C295.293121,148.103821 297.586243,149.206436 299.938354,150.664642 
	C292.642212,151.682846 285.287048,152.345444 277.467773,153.007599 
	C276.999573,151.304504 276.995514,149.601852 276.986694,147.476700 
	C282.010071,147.035751 287.038177,147.017288 292.533142,147.000031 
z" />
  <path fill="#F1F1F1" opacity="1.000000" stroke="none" d="
M234.360001,154.951828 
	C235.040298,154.029633 236.096344,152.530884 237.315079,152.384232 
	C238.971619,152.184921 240.752563,153.019226 242.745499,153.679413 
	C240.276657,154.291656 237.542450,154.634720 234.360001,154.951828 
z" />
</svg>